<svg aria-hidden="true" style="position: absolute; width: 0; height: 0; overflow: hidden;" version="1.1" xmlns="http://www.w3.org/2000/svg" xmlns:xlink="http://www.w3.org/1999/xlink">
<defs>
<symbol id="icon-json" viewBox="0 0 32 32">
<title>json</title>
<path d="M16.057 31.957c0.639-0.005 1.271-0.039 1.901-0.125 1.44-0.184 2.857-0.577 4.195-1.151 1.879-0.803 3.597-1.961 5.057-3.391 1.337-1.319 2.456-2.868 3.253-4.569 0.679-1.463 1.159-3.032 1.36-4.635 0.199-1.547 0.18-3.128-0.060-4.665-0.199-1.28-0.559-2.528-1.057-3.717-0.32-0.748-0.7-1.468-1.139-2.156-1.557-2.449-3.815-4.419-6.413-5.735-0.924-0.473-1.897-0.86-2.896-1.159h-0.007c0.159 0.084 0.32 0.176 0.46 0.268 0.16 0.099 0.319 0.195 0.468 0.3 0.759 0.513 1.459 1.103 2.079 1.773 1.417 1.527 2.396 3.397 2.957 5.388 0.379 1.309 0.579 2.664 0.66 4.023 0.059 0.991 0.059 1.988-0.063 2.972-0.199 1.693-0.739 3.347-1.637 4.795-0.66 1.071-1.52 2.025-2.537 2.779-1.659 1.237-3.836 1.976-5.915 1.485-0.339-0.081-0.68-0.195-0.997-0.344-0.361-0.165-0.72-0.369-1.039-0.599-0.62-0.415-1.18-0.913-1.659-1.475-0.58-0.693-1.059-1.481-1.399-2.329-0.419-1.075-0.639-2.229-0.659-3.387-0.040-1.697 0.3-3.404 1.139-4.893 0.56-0.992 1.319-1.861 2.217-2.557 0.3-0.237 0.619-0.444 0.939-0.639l0.021-0.009c-0.621-0.14-1.28-0.201-1.921-0.16-0.557 0.039-1.097 0.14-1.637 0.319-0.479 0.16-0.939 0.361-1.359 0.6-0.34 0.199-0.677 0.42-0.977 0.66-0.281 0.24-0.56 0.479-0.82 0.74-1.497 1.537-2.357 3.576-2.696 5.675-0.2 1.297-0.2 2.615-0.121 3.935 0.14 1.859 0.521 3.715 1.26 5.415 0.459 1.059 1.057 2.036 1.797 2.897 1.139 1.316 2.579 2.337 4.176 2.975 0.9 0.361 1.859 0.62 2.817 0.72 0.099 0.020 0.199 0.020 0.279 0.020l-0.028-0.043zM12.145 31.427c-0.219-0.093-0.419-0.199-0.6-0.304-0.199-0.111-0.4-0.224-0.599-0.345-0.78-0.483-1.477-1.049-2.119-1.7-1.459-1.517-2.436-3.423-2.996-5.441-0.379-1.379-0.58-2.803-0.66-4.229-0.059-0.937-0.039-1.857 0.061-2.776 0.18-1.676 0.66-3.335 1.499-4.773 0.599-1.059 1.417-1.997 2.377-2.737 0.659-0.499 1.399-0.92 2.177-1.2 1.099-0.399 2.277-0.519 3.417-0.36 0.44 0.060 0.877 0.161 1.279 0.3 0.039 0 0.039 0 0.060 0.040 0.020 0.020 0.060 0.020 0.080 0.040 0.060 0.021 0.139 0.060 0.22 0.099 0.319 0.16 0.639 0.361 0.939 0.56 1.199 0.839 2.177 1.997 2.796 3.336 0.56 1.219 0.82 2.579 0.841 3.917 0.019 1.439-0.24 2.876-0.86 4.195-0.74 1.579-1.997 2.917-3.517 3.776 0.12 0.040 0.24 0.060 0.361 0.1 0.3 0.059 0.599 0.099 0.917 0.099 1.957 0.060 3.856-0.879 5.253-2.196 0.26-0.24 0.5-0.5 0.72-0.78 0.3-0.36 0.58-0.719 0.819-1.097 0.319-0.5 0.58-1 0.819-1.539 0.301-0.719 0.539-1.459 0.679-2.219 0.261-1.339 0.281-2.696 0.199-4.035-0.18-2.696-0.897-5.393-2.456-7.632-0.24-0.339-0.479-0.659-0.74-0.959-0.439-0.5-0.919-0.959-1.417-1.379-0.56-0.46-1.18-0.879-1.817-1.22-0.657-0.297-1.437-0.596-2.256-0.797l-0.4-0.080c-0.279-0.040-0.56-0.059-0.845-0.080-0.433-0.020-0.892-0.013-1.353 0.021-0.939 0.060-1.883 0.213-2.816 0.449-4.475 1.155-8.389 4.273-10.473 8.411-0.668 1.319-1.14 2.728-1.416 4.176-0.319 1.657-0.36 3.364-0.139 5.033 0.16 1.36 0.499 2.697 1.037 3.969 0.303 0.76 0.681 1.499 1.1 2.197 1.459 2.377 3.577 4.315 6.013 5.653 0.917 0.521 1.877 0.92 2.876 1.26 0.301 0.099 0.6 0.199 0.919 0.279l0.021-0.032z"></path>
</symbol>
<symbol id="icon-css3" viewBox="0 0 32 32">
<title>css3</title>
<path fill="#1572b6" style="fill: var(--color1, #1572b6)" d="M2 0h28l-2.547 28.751-11.484 3.249-11.42-3.251-2.549-28.749zM24.787 5.884l-17.573-0.004 0.284 3.496 13.5 0.003-0.34 3.621h-8.853l0.32 3.431h8.243l-0.488 4.697-3.88 1.072-3.941-1.080-0.251-2.813h-3.48l0.387 5.14 7.287 2.271 7.164-2.040 1.623-17.792z"></path>
</symbol>
<symbol id="icon-bootstrap" viewBox="0 0 32 32">
<title>bootstrap</title>
<path fill="#563d7c" style="fill: var(--color2, #563d7c)" d="M26.667 0h-21.333c-2.943 0.008-5.325 2.391-5.333 5.333v21.333c0 2.933 2.4 5.333 5.333 5.333h21.333c2.933 0 5.333-2.4 5.333-5.333v-21.333c0-2.933-2.4-5.333-5.333-5.333zM23.751 22.473c-0.267 0.643-0.689 1.209-1.231 1.645-0.56 0.453-1.269 0.827-2.143 1.093-0.872 0.271-1.909 0.407-3.111 0.407h-8.576v-18.667h9.069c1.677 0 3.021 0.377 4.027 1.147 1.013 0.773 1.517 1.925 1.517 3.48 0 0.94-0.229 1.747-0.691 2.413-0.459 0.663-1.12 1.181-1.973 1.541v0.061c1.139 0.24 2.020 0.78 2.6 1.62s0.877 1.901 0.877 3.183c0 0.717-0.139 1.4-0.4 2.037l0.033 0.036zM20.049 17.873c-0.547-0.5-1.315-0.744-2.307-0.744h-5.763v5.824h5.779c0.987 0 1.76-0.256 2.307-0.773 0.547-0.513 0.827-1.245 0.827-2.187-0.009-0.92-0.28-1.632-0.827-2.12h-0.023zM19.249 14.109c0.528-0.448 0.787-1.089 0.787-1.925 0-0.939-0.233-1.605-0.707-1.987-0.469-0.38-1.147-0.577-2.037-0.577h-5.333v5.151h5.333c0.777 0 1.44-0.227 1.952-0.661z"></path>
</symbol>
<symbol id="icon-jquery" viewBox="0 0 32 32">
<title>jquery</title>
<path fill="#0769ad" style="fill: var(--color3, #0769ad)" d="M2.045 7.832c-2.831 4.067-2.48 9.356-0.316 13.675 0.049 0.105 0.104 0.205 0.157 0.305 0.031 0.069 0.065 0.133 0.103 0.199 0.017 0.037 0.041 0.076 0.063 0.111 0.035 0.069 0.072 0.136 0.108 0.203l0.209 0.353c0.039 0.065 0.076 0.129 0.12 0.195 0.073 0.125 0.16 0.249 0.236 0.375 0.035 0.052 0.067 0.104 0.105 0.156 0.148 0.232 0.284 0.425 0.428 0.612l-0.015-0.020c0.104 0.143 0.208 0.281 0.32 0.42 0.036 0.051 0.076 0.101 0.113 0.152l0.295 0.359c0.036 0.041 0.072 0.089 0.111 0.132 0.131 0.157 0.269 0.311 0.408 0.465 0 0.003 0.004 0.005 0.007 0.009 0.172 0.217 0.358 0.409 0.56 0.582l0.006 0.005c0.107 0.109 0.213 0.219 0.327 0.325l0.135 0.129c0.148 0.139 0.296 0.277 0.452 0.411 0.003 0 0.004 0.003 0.007 0.004l0.076 0.067c0.136 0.119 0.273 0.237 0.413 0.347l0.167 0.14c0.113 0.091 0.231 0.177 0.347 0.267l0.181 0.139c0.124 0.093 0.256 0.185 0.383 0.276 0.047 0.033 0.093 0.067 0.141 0.097l0.039 0.031 0.375 0.247 0.16 0.107c0.196 0.125 0.391 0.244 0.584 0.361 0.056 0.028 0.112 0.059 0.164 0.091 0.144 0.083 0.293 0.167 0.439 0.244 0.080 0.045 0.163 0.084 0.245 0.125 0.1 0.056 0.204 0.111 0.311 0.167 0.029 0.009 0.054 0.019 0.077 0.032l-0.002-0.001c0.044 0.020 0.085 0.041 0.128 0.063 0.16 0.080 0.327 0.156 0.5 0.232 0.032 0.013 0.067 0.027 0.101 0.045 0.192 0.084 0.384 0.164 0.583 0.243 0.045 0.013 0.093 0.036 0.14 0.053 0.18 0.068 0.365 0.137 0.548 0.203l0.067 0.024c0.204 0.069 0.405 0.136 0.612 0.2 0.048 0.013 0.097 0.031 0.148 0.044 0.212 0.064 0.417 0.14 0.631 0.181 13.68 2.493 17.656-8.225 17.656-8.225-3.34 4.349-9.267 5.496-14.88 4.22-0.208-0.048-0.416-0.115-0.625-0.176-0.382-0.11-0.633-0.192-0.882-0.28l0.126 0.039-0.083-0.032c-0.181-0.061-0.356-0.129-0.533-0.197-0.034-0.015-0.082-0.033-0.132-0.050l-0.015-0.004c-0.196-0.079-0.387-0.16-0.576-0.244-0.041-0.013-0.076-0.032-0.117-0.048-0.35-0.155-0.508-0.231-0.665-0.308l0.184 0.081c-0.049-0.021-0.093-0.044-0.141-0.069-0.125-0.059-0.251-0.125-0.373-0.189-0.114-0.054-0.196-0.097-0.276-0.142l0.027 0.014c-0.151-0.080-0.301-0.167-0.452-0.249-0.045-0.032-0.097-0.059-0.149-0.088-0.289-0.169-0.479-0.288-0.668-0.409l0.084 0.050c-0.064-0.040-0.115-0.075-0.165-0.111l0.008 0.006c-0.172-0.106-0.308-0.197-0.44-0.291l0.024 0.017c-0.047-0.031-0.089-0.064-0.137-0.097-0.17-0.118-0.298-0.211-0.424-0.306l0.032 0.023c-0.056-0.045-0.116-0.088-0.176-0.133-0.117-0.092-0.236-0.18-0.353-0.277l-0.157-0.125c-0.174-0.14-0.319-0.263-0.461-0.388l0.016 0.013c-0.015-0.014-0.031-0.028-0.048-0.039l-0.001-0.001-0.463-0.421-0.133-0.125c-0.109-0.111-0.221-0.217-0.333-0.327l-0.129-0.133c-0.138-0.137-0.273-0.278-0.404-0.421l-0.008-0.009-0.020-0.021c-0.141-0.155-0.279-0.312-0.417-0.472-0.036-0.041-0.069-0.085-0.107-0.129l-0.301-0.369c-0.105-0.131-0.254-0.326-0.4-0.522l-0.054-0.075c-3.113-4.251-4.24-10.117-1.748-14.929z"></path>
<path fill="#0769ad" style="fill: var(--color3, #0769ad)" d="M10.828 4.407c-2.052 2.945-1.936 6.884-0.339 9.999 0.296 0.584 0.596 1.078 0.928 1.547l-0.025-0.038c0.307 0.44 0.645 0.96 1.056 1.315 0.143 0.163 0.297 0.32 0.459 0.479l0.12 0.12c0.152 0.147 0.308 0.291 0.467 0.433l0.020 0.017c0.16 0.141 0.34 0.29 0.524 0.435l0.028 0.021c0.045 0.031 0.084 0.067 0.128 0.097 0.187 0.144 0.375 0.283 0.569 0.42l0.020 0.012c0.083 0.060 0.171 0.115 0.264 0.173 0.037 0.024 0.080 0.056 0.12 0.080 0.141 0.091 0.28 0.176 0.423 0.263 0.023 0.009 0.043 0.021 0.064 0.031 0.12 0.073 0.251 0.144 0.376 0.209 0.044 0.027 0.087 0.047 0.132 0.072 0.089 0.044 0.177 0.091 0.263 0.136l0.043 0.019c0.18 0.088 0.364 0.171 0.544 0.253 0.045 0.017 0.084 0.032 0.123 0.051 0.148 0.064 0.299 0.125 0.447 0.183 0.067 0.023 0.129 0.049 0.192 0.069 0.136 0.051 0.279 0.097 0.413 0.144l0.187 0.060c0.195 0.060 0.392 0.139 0.597 0.172 10.56 1.751 13.005-6.383 13.005-6.383-2.201 3.168-6.461 4.677-11.001 3.499-0.277-0.071-0.476-0.13-0.673-0.195l0.076 0.022c-0.064-0.017-0.12-0.037-0.181-0.056-0.139-0.048-0.281-0.095-0.416-0.145l-0.192-0.072c-0.149-0.060-0.301-0.116-0.447-0.18-0.045-0.020-0.087-0.033-0.121-0.053-0.187-0.084-0.375-0.167-0.556-0.256l-0.275-0.143-0.159-0.080c-0.123-0.064-0.236-0.131-0.353-0.2-0.033-0.016-0.060-0.031-0.086-0.047l0.003 0.002c-0.141-0.088-0.288-0.173-0.423-0.264-0.045-0.025-0.087-0.056-0.129-0.083l-0.277-0.181c-0.192-0.133-0.38-0.277-0.569-0.416-0.043-0.039-0.084-0.071-0.125-0.105-1.996-1.569-3.571-3.715-4.317-6.144-0.787-2.525-0.613-5.357 0.745-7.656z"></path>
<path fill="#0769ad" style="fill: var(--color3, #0769ad)" d="M18.213 1.845c-1.211 1.776-1.327 3.981-0.493 5.94 0.885 2.080 2.696 3.713 4.805 4.487 0.087 0.033 0.171 0.061 0.26 0.093l0.117 0.036c0.123 0.039 0.247 0.084 0.373 0.112 5.835 1.125 7.413-2.996 7.839-3.601-1.389 1.995-3.719 2.473-6.576 1.779-0.279-0.070-0.509-0.143-0.732-0.228l0.044 0.015c-0.337-0.119-0.609-0.233-0.873-0.361l0.050 0.022c-0.55-0.269-1.022-0.562-1.462-0.896l0.021 0.016c-2.56-1.939-4.145-5.64-2.476-8.655z"></path>
</symbol>
<symbol id="icon-sass" viewBox="0 0 32 32">
<title>sass</title>
<path fill="#c69" style="fill: var(--color4, #c69)" d="M16 0c8.836 0 16 7.164 16 16s-7.164 16-16 16-16-7.164-16-16 7.164-16 16-16zM12.82 21.331c0.233 0.86 0.208 1.664-0.032 2.389l-0.087 0.24c-0.032 0.081-0.069 0.16-0.104 0.235-0.187 0.387-0.435 0.747-0.74 1.080-0.931 1.012-2.229 1.396-2.787 1.073-0.6-0.349-0.301-1.78 0.779-2.92 1.161-1.224 2.827-2.012 2.827-2.012v-0.004l0.144-0.081zM26.035 6.849c-0.723-2.844-5.436-3.779-9.896-2.193-2.652 0.943-5.525 2.424-7.591 4.356-2.457 2.295-2.848 4.295-2.687 5.131 0.569 2.948 4.609 4.876 6.271 6.307v0.008c-0.489 0.24-4.075 2.039-4.915 3.9-0.9 1.96 0.14 3.361 0.82 3.54 2.1 0.581 4.26-0.48 5.42-2.199 1.12-1.681 1.021-3.841 0.539-4.901 0.661-0.18 1.44-0.26 2.44-0.139 2.801 0.32 3.361 2.080 3.24 2.8-0.12 0.719-0.697 1.139-0.899 1.259-0.2 0.121-0.26 0.16-0.241 0.241 0.020 0.12 0.121 0.12 0.28 0.1 0.22-0.040 1.461-0.6 1.521-1.961 0.060-1.72-1.581-3.639-4.5-3.6-1.2 0.021-1.961 0.121-2.5 0.341-0.040-0.060-0.081-0.1-0.14-0.14-1.8-1.94-5.14-3.3-5-5.88 0.040-0.94 0.38-3.419 6.4-6.419 4.94-2.461 8.881-1.78 9.561-0.28 0.977 2.139-2.101 6.12-7.241 6.699-1.96 0.22-2.98-0.539-3.241-0.82-0.279-0.3-0.319-0.32-0.419-0.259-0.16 0.080-0.060 0.34 0 0.5 0.16 0.4 0.78 1.1 1.861 1.46 0.939 0.3 3.24 0.479 6-0.6 3.099-1.199 5.519-4.54 4.819-7.34l0.097 0.089z"></path>
</symbol>
<symbol id="icon-html5" viewBox="0 0 32 32">
<title>html5</title>
<path fill="#e34f26" style="fill: var(--color5, #e34f26)" d="M2 0h28l-2.547 28.751-11.484 3.249-11.419-3.251-2.551-28.749zM11.375 13l-0.309-3.624 13.412 0.004 0.307-3.496-17.568-0.004 0.931 10.68h12.168l-0.435 4.568-3.88 1.072-3.94-1.080-0.251-2.813h-3.479l0.44 5.561 7.229 1.933 7.172-1.924 0.992-10.876h-12.789z"></path>
</symbol>
<symbol id="icon-javascript" viewBox="0 0 32 32">
<title>javascript</title>
<path fill="#f7df1e" style="fill: var(--color6, #f7df1e)" d="M0 0h32v32h-32v-32zM29.379 24.368c-0.233-1.46-1.184-2.687-4.004-3.831-0.981-0.46-2.072-0.78-2.396-1.52-0.121-0.44-0.14-0.68-0.061-0.94 0.2-0.861 1.22-1.12 2.020-0.88 0.52 0.16 1 0.56 1.301 1.2 1.379-0.901 1.379-0.901 2.34-1.5-0.36-0.56-0.539-0.801-0.781-1.040-0.84-0.94-1.959-1.42-3.779-1.379l-0.94 0.119c-0.901 0.22-1.76 0.7-2.28 1.34-1.52 1.721-1.081 4.721 0.759 5.961 1.82 1.36 4.481 1.659 4.821 2.94 0.32 1.56-1.16 2.060-2.621 1.88-1.081-0.24-1.68-0.781-2.34-1.781l-2.44 1.401c0.28 0.64 0.6 0.919 1.080 1.479 2.32 2.341 8.12 2.221 9.161-1.339 0.039-0.12 0.32-0.94 0.099-2.2l0.061 0.089zM17.401 14.708h-2.997c0 2.584-0.012 5.152-0.012 7.74 0 1.643 0.084 3.151-0.184 3.615-0.44 0.919-1.573 0.801-2.088 0.64-0.528-0.261-0.796-0.621-1.107-1.14-0.084-0.14-0.147-0.261-0.169-0.261l-2.433 1.5c0.407 0.84 1 1.563 1.765 2.023 1.14 0.68 2.672 0.9 4.276 0.54 1.044-0.301 1.944-0.921 2.415-1.881 0.68-1.24 0.536-2.76 0.529-4.461 0.016-2.739 0-5.479 0-8.239l0.005-0.075z"></path>
</symbol>
</defs>
</svg>
